<svg width="1920" height="780" fill="none" xmlns="http://www.w3.org/2000/svg"><g clip-path="url(#clip0_624_1192)"><path fill="url(#paint0_linear_624_1192)" d="M0 0h1920v859H0z"/><path fill-rule="evenodd" clip-rule="evenodd" d="M7.137 101.014a2.58 2.58 0 00-2.32 2.578 2.317 2.317 0 002.32 2.319 2.33 2.33 0 001.64-.679 2.312 2.312 0 00.68-1.64 2.579 2.579 0 00-2.32-2.578zm18.409 0a2.58 2.58 0 00-2.578 2.578 2.318 2.318 0 002.578 2.319 2.32 2.32 0 002.32-2.319 2.58 2.58 0 00-2.32-2.578zm18.151 0a2.58 2.58 0 00-2.32 2.578 2.32 2.32 0 004.64 0 2.58 2.58 0 00-2.32-2.578zm18.151 0a2.58 2.58 0 00-2.32 2.578 2.316 2.316 0 001.432 2.143 2.33 2.33 0 001.775 0 2.333 2.333 0 001.256-1.256c.116-.281.176-.583.176-.887a2.578 2.578 0 00-2.32-2.578zm18.408 0a2.58 2.58 0 00-2.577 2.578 2.315 2.315 0 00.768 1.738 2.32 2.32 0 001.81.581 2.32 2.32 0 002.319-2.319 2.58 2.58 0 00-2.32-2.578zm18.151 0a2.58 2.58 0 00-2.32 2.578 2.32 2.32 0 004.64 0 2.58 2.58 0 00-2.32-2.578zM7.137 120a2.58 2.58 0 00-2.32 2.577 2.318 2.318 0 003.208 2.144 2.333 2.333 0 001.255-1.256 2.31 2.31 0 00.177-.888A2.578 2.578 0 007.137 120zm18.409 0a2.58 2.58 0 00-2.578 2.577 2.323 2.323 0 001.61 2.224c.313.1.642.133.968.096a2.32 2.32 0 002.32-2.32 2.578 2.578 0 00-2.32-2.577zm18.151 0a2.58 2.58 0 00-2.32 2.577 2.32 2.32 0 104.64 0 2.579 2.579 0 00-2.32-2.577zm18.151 0a2.58 2.58 0 00-2.32 2.577 2.318 2.318 0 002.32 2.32 2.33 2.33 0 001.64-.679 2.323 2.323 0 00.68-1.641 2.577 2.577 0 00-2.32-2.577zm18.408 0a2.58 2.58 0 00-2.577 2.577 2.32 2.32 0 002.577 2.32 2.32 2.32 0 002.32-2.32 2.578 2.578 0 00-2.32-2.577zm18.151 0a2.58 2.58 0 00-2.32 2.577 2.32 2.32 0 104.64 0 2.58 2.58 0 00-2.32-2.577zm-91.27 18.986a2.58 2.58 0 00-2.32 2.577 2.318 2.318 0 003.208 2.143 2.315 2.315 0 001.432-2.143 2.578 2.578 0 00-2.32-2.577zm18.409 0a2.575 2.575 0 00-2.578 2.577 2.323 2.323 0 001.61 2.223c.313.101.642.133.968.097a2.32 2.32 0 002.32-2.32 2.578 2.578 0 00-2.32-2.577zm18.151 0a2.58 2.58 0 00-2.32 2.577 2.32 2.32 0 104.64 0 2.579 2.579 0 00-2.32-2.577zm18.151 0a2.58 2.58 0 00-2.32 2.577 2.318 2.318 0 003.207 2.143 2.315 2.315 0 001.432-2.143 2.577 2.577 0 00-2.32-2.577zm18.408 0a2.575 2.575 0 00-2.577 2.577 2.32 2.32 0 002.577 2.32 2.32 2.32 0 002.32-2.32 2.578 2.578 0 00-2.32-2.577zm18.151 0a2.58 2.58 0 00-2.32 2.577 2.32 2.32 0 104.64 0 2.58 2.58 0 00-2.32-2.577zm-91.27 18.986a2.575 2.575 0 00-2.32 2.577 2.322 2.322 0 002.32 2.32 2.312 2.312 0 001.64-.68 2.318 2.318 0 00.68-1.64 2.578 2.578 0 00-2.32-2.577zm18.409 0a2.575 2.575 0 00-2.578 2.577 2.323 2.323 0 001.61 2.223c.313.1.642.133.968.097a2.316 2.316 0 002.32-2.32 2.578 2.578 0 00-2.32-2.577zm18.151 0a2.575 2.575 0 00-2.32 2.577 2.32 2.32 0 004.64 0 2.579 2.579 0 00-2.32-2.577zm18.151 0a2.575 2.575 0 00-2.32 2.577 2.321 2.321 0 003.207 2.143 2.319 2.319 0 001.432-2.143 2.577 2.577 0 00-2.32-2.577zm18.408 0a2.575 2.575 0 00-2.577 2.577 2.32 2.32 0 002.577 2.32 2.316 2.316 0 002.32-2.32 2.578 2.578 0 00-2.32-2.577zm18.151 0a2.575 2.575 0 00-2.32 2.577 2.32 2.32 0 004.64 0 2.58 2.58 0 00-2.32-2.577zm-91.27 18.986a2.58 2.58 0 00-2.32 2.577 2.318 2.318 0 003.208 2.144 2.333 2.333 0 001.255-1.256 2.31 2.31 0 00.177-.888 2.578 2.578 0 00-2.32-2.577zm18.409 0a2.58 2.58 0 00-2.578 2.577 2.323 2.323 0 001.61 2.224c.313.1.642.133.968.096a2.32 2.32 0 002.32-2.32 2.578 2.578 0 00-2.32-2.577zm18.151 0a2.58 2.58 0 00-2.32 2.577 2.32 2.32 0 104.64 0 2.579 2.579 0 00-2.32-2.577zm18.151 0a2.58 2.58 0 00-2.32 2.577 2.318 2.318 0 002.32 2.32 2.33 2.33 0 001.64-.679 2.323 2.323 0 00.68-1.641 2.577 2.577 0 00-2.32-2.577zm18.408 0a2.58 2.58 0 00-2.577 2.577 2.32 2.32 0 002.577 2.32 2.32 2.32 0 002.32-2.32 2.578 2.578 0 00-2.32-2.577zm18.151 0a2.58 2.58 0 00-2.32 2.577 2.32 2.32 0 104.64 0 2.58 2.58 0 00-2.32-2.577zm-91.27 18.986a2.58 2.58 0 00-2.32 2.577 2.318 2.318 0 003.208 2.143 2.315 2.315 0 001.432-2.143 2.578 2.578 0 00-2.32-2.577zm18.409 0a2.575 2.575 0 00-2.578 2.577 2.323 2.323 0 001.61 2.223c.313.101.642.133.968.097a2.32 2.32 0 002.32-2.32 2.578 2.578 0 00-2.32-2.577zm18.151 0a2.58 2.58 0 00-2.32 2.577 2.32 2.32 0 104.64 0 2.579 2.579 0 00-2.32-2.577zm18.151 0a2.58 2.58 0 00-2.32 2.577 2.318 2.318 0 003.207 2.143 2.315 2.315 0 001.432-2.143 2.577 2.577 0 00-2.32-2.577zm18.408 0a2.575 2.575 0 00-2.577 2.577 2.32 2.32 0 002.577 2.32 2.32 2.32 0 002.32-2.32 2.578 2.578 0 00-2.32-2.577zm18.151 0a2.58 2.58 0 00-2.32 2.577 2.32 2.32 0 104.64 0 2.58 2.58 0 00-2.32-2.577zM7.137 214.93a2.575 2.575 0 00-2.32 2.577 2.322 2.322 0 002.32 2.32 2.312 2.312 0 001.64-.68 2.318 2.318 0 00.68-1.64 2.578 2.578 0 00-2.32-2.577zm18.409 0a2.575 2.575 0 00-2.578 2.577 2.323 2.323 0 001.61 2.223c.313.1.642.133.968.097a2.316 2.316 0 002.32-2.32 2.578 2.578 0 00-2.32-2.577zm18.151 0a2.575 2.575 0 00-2.32 2.577 2.32 2.32 0 004.64 0 2.579 2.579 0 00-2.32-2.577zm18.151 0a2.575 2.575 0 00-2.32 2.577 2.321 2.321 0 003.207 2.143 2.319 2.319 0 001.432-2.143 2.577 2.577 0 00-2.32-2.577zm18.408 0a2.575 2.575 0 00-2.577 2.577 2.32 2.32 0 002.577 2.32 2.316 2.316 0 002.32-2.32 2.578 2.578 0 00-2.32-2.577zm18.151 0a2.575 2.575 0 00-2.32 2.577 2.32 2.32 0 004.64 0 2.58 2.58 0 00-2.32-2.577zm-91.27 18.986a2.575 2.575 0 00-2.32 2.577 2.322 2.322 0 002.32 2.32 2.312 2.312 0 001.64-.68 2.318 2.318 0 00.68-1.64 2.576 2.576 0 00-2.32-2.577zm18.409 0a2.578 2.578 0 00-2.578 2.577 2.323 2.323 0 001.61 2.223c.313.1.642.133.968.097a2.32 2.32 0 002.32-2.32 2.577 2.577 0 00-2.32-2.577zm18.151 0a2.575 2.575 0 00-2.32 2.577 2.32 2.32 0 004.64 0 2.577 2.577 0 00-2.32-2.577zm18.151 0a2.575 2.575 0 00-2.32 2.577 2.321 2.321 0 003.207 2.143 2.319 2.319 0 001.432-2.143 2.576 2.576 0 00-2.32-2.577zm18.408 0a2.578 2.578 0 00-2.577 2.577 2.32 2.32 0 002.577 2.32 2.32 2.32 0 002.32-2.32 2.577 2.577 0 00-2.32-2.577zm18.151 0a2.575 2.575 0 00-2.32 2.577 2.32 2.32 0 004.64 0 2.577 2.577 0 00-2.32-2.577zm-91.27 18.985a2.576 2.576 0 00-2.32 2.578 2.325 2.325 0 00.68 1.64 2.317 2.317 0 003.28 0 2.318 2.318 0 00.68-1.64 2.576 2.576 0 00-2.32-2.578zm18.409 0a2.58 2.58 0 00-2.578 2.578 2.318 2.318 0 002.578 2.32 2.32 2.32 0 002.32-2.32 2.577 2.577 0 00-2.32-2.578zm18.151 0a2.576 2.576 0 00-2.32 2.578 2.32 2.32 0 004.64 0 2.577 2.577 0 00-2.32-2.578zm18.151 0a2.576 2.576 0 00-2.32 2.578 2.325 2.325 0 00.68 1.64 2.319 2.319 0 003.96-1.64 2.576 2.576 0 00-2.32-2.578zm18.408 0a2.58 2.58 0 00-2.577 2.578 2.315 2.315 0 00.768 1.738 2.307 2.307 0 001.81.582 2.32 2.32 0 002.319-2.32 2.577 2.577 0 00-2.32-2.578zm18.151 0a2.576 2.576 0 00-2.32 2.578 2.32 2.32 0 004.64 0 2.577 2.577 0 00-2.32-2.578zm-91.27 18.986a2.576 2.576 0 00-2.32 2.578 2.317 2.317 0 002.32 2.319 2.33 2.33 0 001.64-.679 2.312 2.312 0 00.68-1.64 2.574 2.574 0 00-2.32-2.578zm18.409 0a2.58 2.58 0 00-2.578 2.578 2.318 2.318 0 002.578 2.319 2.32 2.32 0 002.32-2.319 2.575 2.575 0 00-2.32-2.578zm18.151 0a2.576 2.576 0 00-2.32 2.578 2.32 2.32 0 004.64 0 2.575 2.575 0 00-2.32-2.578zm18.151 0a2.576 2.576 0 00-2.32 2.578 2.316 2.316 0 001.432 2.143 2.33 2.33 0 001.775 0 2.333 2.333 0 001.256-1.256c.116-.281.176-.583.176-.887a2.576 2.576 0 00-2.32-2.578zm18.408 0a2.58 2.58 0 00-2.577 2.578 2.315 2.315 0 00.768 1.738 2.32 2.32 0 001.81.581 2.32 2.32 0 002.319-2.319 2.575 2.575 0 00-2.32-2.578zm18.151 0a2.576 2.576 0 00-2.32 2.578 2.32 2.32 0 004.64 0 2.576 2.576 0 00-2.32-2.578zm-91.27 18.986a2.58 2.58 0 00-2.32 2.578 2.317 2.317 0 002.32 2.319 2.33 2.33 0 001.64-.679 2.322 2.322 0 00.68-1.64 2.579 2.579 0 00-2.32-2.578zm18.409 0a2.58 2.58 0 00-2.578 2.578 2.322 2.322 0 002.578 2.319 2.32 2.32 0 002.32-2.319 2.58 2.58 0 00-2.32-2.578zm18.151 0a2.58 2.58 0 00-2.32 2.578 2.32 2.32 0 004.64 0 2.58 2.58 0 00-2.32-2.578zm18.151 0a2.58 2.58 0 00-2.32 2.578 2.316 2.316 0 001.432 2.143 2.33 2.33 0 001.775 0 2.333 2.333 0 001.256-1.256c.116-.281.176-.583.176-.887a2.578 2.578 0 00-2.32-2.578zm18.408 0a2.58 2.58 0 00-2.577 2.578 2.318 2.318 0 002.577 2.319 2.32 2.32 0 002.32-2.319 2.58 2.58 0 00-2.32-2.578zm18.151 0a2.58 2.58 0 00-2.32 2.578 2.32 2.32 0 004.64 0 2.58 2.58 0 00-2.32-2.578z" fill="#ACBEFE"/><path d="M-6.5 408c-20.668 0-40.872 6.275-58.057 18.033-17.185 11.757-30.579 28.468-38.488 48.02-7.91 19.552-9.979 41.066-5.947 61.822 4.032 20.756 13.985 39.821 28.6 54.785 14.614 14.965 33.234 25.155 53.505 29.284 20.271 4.129 41.282 2.01 60.377-6.089 19.095-8.099 35.416-21.813 46.899-39.409C91.87 556.85 98 536.163 98 515c0-28.378-11.01-55.594-30.607-75.66C47.795 419.273 21.215 408-6.5 408zm0 199.876c-17.991.255-35.65-4.975-50.73-15.024-15.081-10.05-26.902-24.464-33.96-41.411-7.058-16.947-9.034-35.66-5.677-53.76 3.357-18.1 11.895-34.769 24.53-47.887 12.634-13.117 28.792-22.091 46.421-25.78 17.629-3.689 35.93-1.926 52.578 5.064 16.647 6.99 30.888 18.892 40.912 34.192 10.023 15.3 15.376 33.307 15.378 51.73-.105 24.378-9.524 47.745-26.242 65.103-16.717 17.357-39.406 27.326-63.21 27.773z" fill="#fff" fill-opacity=".8"/><path d="M311.333 258c.062-16.53 6.473-32.365 17.837-44.054 11.364-11.688 26.759-18.283 42.83-18.346V186c-18.565 0-36.37 7.586-49.497 21.088C309.375 220.591 302 238.904 302 258h9.333z" fill="#fff" fill-opacity=".6"/></g><defs><linearGradient id="paint0_linear_624_1192" x1="960" y1="0" x2="960" y2="859" gradientUnits="userSpaceOnUse"><stop stop-color="#F6F8FF"/><stop offset="1" stop-color="#fff" stop-opacity="0"/></linearGradient><clipPath id="clip0_624_1192"><path fill="#fff" d="M0 0h1920v859H0z"/></clipPath></defs></svg>