<svg width="24" height="20" fill="none" xmlns="http://www.w3.org/2000/svg"><path fill-rule="evenodd" clip-rule="evenodd" d="M.935 5.367v5.368H13.17V0H8.95v1.24c0 .98-.014 1.276-.068 1.41-.12.297-.214.313-1.794.313-.798 0-1.47-.022-1.567-.05-.33-.095-.343-.15-.36-1.614L5.149 0H.935v5.367zM6.113.061c-.013.035-.018.478-.01.985l.012.921H7.99V.024L7.063.011c-.727-.01-.932 0-.95.05zm8.933 5.33v1.944h.938V3.449h-.938v1.943zm1.875 0v1.944h.985V3.449h-.985v1.943zm2.06-1.8l-.138.142v1.634c0 1.028.018 1.669.049 1.727.095.184.292.24.84.24h.519l-.012 3.413-.012 3.412H5.647l-.014-.59c-.012-.562-.019-.596-.135-.716-.262-.272-.25-.277-2.93 1.388C.752 15.371.114 15.79.064 15.891c-.106.212-.082.366.085.546.084.09 1.218.934 2.52 1.875 2.32 1.676 2.37 1.71 2.555 1.684a.45.45 0 00.293-.154c.1-.12.106-.166.106-.95v-.823h8.12c8.972 0 8.411.02 9.01-.307.356-.195.794-.65.97-1.01.284-.585.276-.409.277-6.02 0-5.6.01-5.38-.271-5.97-.153-.318-.604-.808-.918-.998-.47-.283-.702-.315-2.27-.315h-1.423l-.137.142zM4.45 5.95c.169.09.234.21.234.426 0 .19-.16.402-.338.448-.06.016-.58.023-1.151.014l-1.04-.015-.13-.133a.455.455 0 01.024-.673l.152-.14h1.056c.85 0 1.083.014 1.194.073zm-.995 1.921c.318.115.397.536.146.779l-.146.14H2.83c-.626 0-.627 0-.78-.14-.123-.115-.151-.177-.151-.336a.47.47 0 01.279-.449c.139-.059 1.112-.054 1.28.006z" fill="#FED154"/></svg>