<svg width="20" height="26" fill="none" xmlns="http://www.w3.org/2000/svg"><path fill-rule="evenodd" clip-rule="evenodd" d="M15.64.384c-.233.44-.48.687-.923.923-.298.158-.4.264-.344.357.014.023.218.155.452.294.493.291.514.313.808.84.288.519.361.519.65 0 .293-.527.311-.546.803-.834.234-.138.438-.271.453-.296.059-.097-.039-.2-.338-.362-.448-.24-.696-.487-.927-.922-.271-.512-.362-.512-.633 0zm-12.663 3.2c-.111.077-.745.609-1.408 1.18L.364 5.806 3.3 5.82c1.615.008 2.947.003 2.96-.01.014-.014.155-.551.313-1.195l.288-1.17H3.18l-.203.14zm7.09 1.031c.158.644.299 1.181.312 1.195.013.013 1.345.018 2.96.01l2.937-.015-1.206-1.04c-.663-.572-1.296-1.104-1.408-1.18l-.202-.14H9.778l.288 1.17zm8.622-.122c-.147.295-.364.506-.697.68-.117.06-.204.14-.193.175.012.035.165.154.342.264.24.15.37.28.516.526.108.18.225.336.26.348.034.012.123-.1.197-.246.174-.347.297-.475.635-.662.336-.186.335-.278-.007-.467-.348-.193-.401-.245-.59-.588-.093-.165-.204-.3-.248-.3-.044 0-.141.121-.215.27zM0 12.67c0 6.8-.017 6.45.332 6.634.232.122 15.744.122 15.976 0 .349-.183.332.167.332-6.634V6.5h-6.22v5.161l-.12.113a.414.414 0 01-.231.113c-.062 0-.469-.2-.904-.444C8.73 11.2 8.353 11 8.327 11c-.026 0-.404.2-.839.444-.435.245-.85.445-.92.445a.395.395 0 01-.24-.111c-.105-.108-.109-.185-.109-2.694V6.5H0v6.17zm7.556 8.278a6.606 6.606 0 00-1.738.515c-.796.37-2.119 1.319-2.797 2.008-.474.481-.528.642-.33.984.203.347.664.85 1.117 1.217.555.449.645.444 1.322-.065.866-.652.818-.642 2.834-.626 1.943.015 2.071.001 3.709-.408 1.717-.43 3.024-.919 3.164-1.184.152-.29-.015-.67-.36-.817-.39-.165-1.294-.043-2.257.305-.74.268-.946.3-1.863.291-.672-.006-.902.01-1.074.08-.167.069-.244.075-.33.029-.286-.156-.25-.508.067-.642.343-.146.69-.153 1.49-.033.423.064.877.115 1.008.113.56-.007.835-.257.685-.62a.94.94 0 00-.186-.282c-.236-.214-2.143-.755-3.068-.87a4.809 4.809 0 00-1.393.005z" fill="#FED154"/></svg>