<svg width="1920" height="780" xmlns="http://www.w3.org/2000/svg"><path fill="url(#paint0_radial_714_1676)" d="M0 0h1922v780H0z"/><path d="M197.485 89.396c.669-.553 1.677-.05 1.637.816l-1.745 38.163a1 1 0 00.229.683l24.36 29.427c.553.669.051 1.677-.816 1.637l-38.162-1.745a1 1 0 00-.684.229l-29.427 24.36c-.669.553-1.677.051-1.637-.816l1.745-38.162a1 1 0 00-.229-.684l-24.36-29.427c-.553-.669-.051-1.676.816-1.637l38.162 1.745a1 1 0 00.684-.228l29.427-24.36z" fill="url(#paint1_linear_714_1676)"/><path d="M1772.8 199.976c.54-.675 1.63-.384 1.76.474l8.07 51.641c.04.246.17.468.36.624l40.69 32.81a.997.997 0 01-.47 1.766l-51.64 8.07c-.25.039-.47.167-.63.36l-32.81 40.688c-.54.676-1.63.384-1.76-.473l-8.07-51.642a1.025 1.025 0 00-.36-.624l-40.69-32.809c-.68-.545-.38-1.633.47-1.767l51.64-8.07c.25-.038.47-.166.63-.36l32.81-40.688z" fill="url(#paint2_linear_714_1676)"/><path d="M367.038 327.031c.544-.675 1.632-.384 1.766.474l15.09 96.56a.999.999 0 00.36.624l76.079 61.349c.676.544.384 1.632-.473 1.766l-96.561 15.09a1.001 1.001 0 00-.624.36l-61.348 76.079c-.545.676-1.633.384-1.767-.473l-15.089-96.561a1.003 1.003 0 00-.361-.624l-76.079-61.348c-.675-.545-.384-1.633.474-1.767l96.56-15.089a1 1 0 00.624-.361l61.349-76.079z" fill="url(#paint3_linear_714_1676)"/><circle cx="1578" cy="688" r="71" fill="#94ABFF"/><circle cx="241" cy="633" r="18" fill="#FED154"/><circle cx="101" cy="331" r="12" fill="#54FE6F"/><circle cx="1688" cy="487" r="10" fill="#FD98CF"/><defs><linearGradient id="paint1_linear_714_1676" x1="161.5" y1="95.501" x2="175" y2="208" gradientUnits="userSpaceOnUse"><stop stop-color="#fff"/><stop offset=".859" stop-color="#fff" stop-opacity="0"/></linearGradient><linearGradient id="paint2_linear_714_1676" x1="1769" y1="215.5" x2="1735" y2="319" gradientUnits="userSpaceOnUse"><stop stop-color="#fff"/><stop offset="1" stop-color="#fff" stop-opacity="0"/></linearGradient><linearGradient id="paint3_linear_714_1676" x1="368.455" y1="325.273" x2="299.909" y2="581.091" gradientUnits="userSpaceOnUse"><stop stop-color="#fff"/><stop offset="1" stop-color="#fff" stop-opacity="0"/></linearGradient><radialGradient id="paint0_radial_714_1676" cx="0" cy="0" r="1" gradientUnits="userSpaceOnUse" gradientTransform="matrix(-1145.99708 396.00846 -188.5326 -545.5889 1578.5 357)"><stop stop-color="#FCF9F4" stop-opacity=".24"/><stop offset="1" stop-color="#FCF9F4"/></radialGradient></defs></svg>