<svg width="20" height="18" fill="none" xmlns="http://www.w3.org/2000/svg"><path fill-rule="evenodd" clip-rule="evenodd" d="M11.936.014c-.087.02-5.398 3.134-5.488 3.217-.049.044.56.052 3.936.052 2.197 0 3.994-.007 3.994-.017 0-.033-1.77-2.994-1.831-3.065a.683.683 0 00-.611-.187zM1.914.888a2.21 2.21 0 00-.79.35c-.517.336-.883.85-1.047 1.471C.003 2.987 0 3.187 0 9.402c0 6.28 0 6.412.077 6.706.229.876.885 1.543 1.778 1.807.222.066.623.07 7.522.082 5.163.009 7.36 0 7.54-.03.489-.081.902-.35 1.168-.76.213-.33.24-.498.24-1.544v-.948l-1.378-.016c-1.289-.014-1.396-.02-1.67-.101a3.775 3.775 0 01-1.72-1.025 3.554 3.554 0 01-.943-1.648c-.123-.442-.124-1.279-.002-1.755.338-1.323 1.367-2.34 2.728-2.696.371-.097.434-.101 1.687-.117l1.302-.017-.012-1.022-.012-1.022-.129-.258a1.85 1.85 0 00-.672-.73c-.405-.232.043-.22-7.902-.22-7.963 0-7.406.017-7.662-.222a.735.735 0 01-.253-.646.778.778 0 01.424-.665l.174-.096 1.543-.02 1.544-.018L6.7 1.639c.73-.43 1.336-.788 1.345-.796.009-.007-1.319-.012-2.95-.01-2.348.002-3.01.014-3.181.055zM14.417.85c0 .029 1.33 2.287 1.377 2.337.022.024.03-.196.023-.558l-.013-.596-.146-.289a1.592 1.592 0 00-.783-.76c-.251-.112-.458-.173-.458-.134zm1.467 7.766a2.059 2.059 0 00-.765.25c-1.011.515-1.539 1.596-1.308 2.68.191.895.957 1.669 1.856 1.876.209.048.58.059 2.075.06h1.82l.13-.086c.071-.048.166-.135.211-.195.08-.106.082-.147.093-2.118.01-1.943.008-2.014-.068-2.16a.725.725 0 00-.225-.24l-.148-.09-1.72-.005c-.945-.003-1.823.01-1.951.028zm.702 1.678a.814.814 0 01.06 1.46c-.421.228-.968.043-1.153-.39-.287-.674.423-1.368 1.093-1.07z" fill="#FED154"/></svg>