<svg xmlns="http://www.w3.org/2000/svg"><symbol id="logo" viewBox="0 0 142 32"><path fill-rule="evenodd" clip-rule="evenodd" d="M1.532.408C-.052 1.252 0 .72 0 16.11c0 13.43.012 13.797.444 14.514C1.286 32.024 1.022 32 15.8 32c14.78 0 14.516.024 15.358-1.376.432-.716.443-1.085.444-14.513 0-15.39.052-14.859-1.532-15.703C29.353.025 28.477 0 15.8 0 3.126 0 2.25.025 1.532.408zm34.9 15.497v15.461l9.712-.091c8.415-.08 9.886-.143 11.017-.48 2.933-.871 5.144-2.568 6.204-4.76.491-1.018.6-1.548.603-2.917.004-3.086-1.309-5.468-3.954-7.175l-1.39-.898.828-.608c2.175-1.595 3.19-3.775 3.052-6.55-.072-1.439-.212-2.01-.728-2.97-1.09-2.027-3.169-3.495-5.861-4.137-1.096-.262-3.218-.33-10.43-.332L36.433.444v15.461zm31.439-.072l.056 15.39h8.56l.059-4.612.06-4.611h2.57l3.23 4.667 3.23 4.666h4.808c2.644 0 4.807-.064 4.807-.143 0-.08-1.59-2.436-3.535-5.237-1.944-2.8-3.5-5.12-3.457-5.153a89.99 89.99 0 011.343-.899c6.442-4.265 5.912-14.353-.946-18.002C86.143.56 85.197.453 75.99.449L67.814.443l.057 15.39zm31.112.056v15.444h8.559V.444h-8.559V15.89zm14.312-11.615l5.38 7.703 2.702 3.867-.374.578c-.205.318-2.562 3.688-5.238 7.489-2.675 3.8-4.934 7.026-5.02 7.166-.116.19 1.111.256 4.774.256h4.93l2.878-4.11c1.583-2.262 2.951-4.106 3.039-4.1.089.008 1.441 1.858 3.005 4.112l2.844 4.098h4.892c2.908 0 4.893-.084 4.893-.209 0-.114-2.34-3.54-5.199-7.61-2.86-4.072-5.198-7.553-5.197-7.736.001-.184 2.34-3.653 5.199-7.71C139.661 4.013 142 .638 142 .569c0-.068-2.198-.12-4.883-.114l-4.884.01-2.853 4.088c-1.581 2.265-2.937 4.003-3.042 3.898-.104-.103-1.399-1.922-2.877-4.041L120.773.556l-5.078-.06-5.078-.06 2.678 3.838zm-83.63-2.35c.382.348.402 1.076.402 14.037 0 12.409-.033 13.708-.363 14.077-.344.385-1.063.406-13.864.406-12.255 0-13.539-.034-13.903-.367-.38-.349-.401-1.077-.401-14.038 0-12.409.033-13.708.363-14.077.344-.385 1.063-.406 13.864-.406 12.255 0 13.539.034 13.903.367zm-16.436 1.3C8.12 4.35 4.252 8.323 3.162 13.565c-.767 3.692.4 8.01 2.986 11.033 2.476 2.898 6.783 4.729 10.422 4.431 1.733-.142 3.881-.79 5.44-1.643l1.05-.575 1.04 1.038 1.042 1.038 1.742-1.774 1.743-1.776-1.038-1.067-1.04-1.068.644-1.212c.991-1.866 1.41-3.616 1.407-5.878-.004-3.698-1.092-6.418-3.669-9.171-3.012-3.218-7.495-4.641-11.703-3.715zm39.108 4.87c.761.322 1.434 1.307 1.434 2.1 0 .682-1.041 1.77-1.935 2.02-.445.125-2.167.228-3.826.23h-3.018V7.778h3.299c2.355 0 3.513.09 4.046.316zm31.516.732c1.965 1.237 1.837 3.708-.25 4.785-.611.316-1.335.388-3.88.388L76.597 14V8.182l3.237.075c2.886.068 3.323.13 4.02.569zM18.609 10.13c1.43.721 2.766 2.24 3.24 3.684.366 1.116.387 3.968.031 4.327-.09.091-.633-.303-1.207-.875l-1.043-1.041-1.743 1.774-1.743 1.776 1.077 1.107c.593.61 1.002 1.185.91 1.279-.094.094-.959.207-1.924.251-2.18.1-3.383-.319-4.82-1.68-3.299-3.123-2.427-8.678 1.671-10.645 1.597-.767 3.983-.748 5.551.043zm34.544 8.989c1.75.492 2.475 2.419 1.399 3.714-.802.965-1.827 1.167-5.91 1.167h-3.65v-5.111l3.676.001c2.022 0 4.04.104 4.485.229z" fill="#FED154"/></symbol><symbol id="burger-btn" viewBox="0 0 24 24"><path d="M20 6a2 2 0 110-4 2 2 0 010 4zm-6-2a2 2 0 10-4 0 2 2 0 004 0zM6 4a2 2 0 10-4 0 2 2 0 004 0zm12 8a2 2 0 104 0 2 2 0 00-4 0zm-8 0a2 2 0 104 0 2 2 0 00-4 0zm-8 0a2 2 0 104 0 2 2 0 00-4 0zm8.337 9.111a2 2 0 113.325-2.222 2 2 0 01-3.325 2.222zm-8 0a2 2 0 113.326-2.222 2 2 0 01-3.326 2.222z" fill="#FED154"/></symbol><symbol id="phone" viewBox="0 0 22 23"><path d="M.277 8.858c1.329 5.28 8.586 12.542 13.865 13.865.713.18 1.445.273 2.18.274a8.54 8.54 0 004.006-1 3.109 3.109 0 00.764-4.951l-2.086-2.086a3.112 3.112 0 00-3.444-.651 4.86 4.86 0 00-1.471.987c-.178.177-.506.205-.977.077a9.98 9.98 0 01-5.488-5.487c-.126-.471-.1-.8.078-.977.417-.426.752-.926.988-1.473a3.112 3.112 0 00-.651-3.442L5.955 1.909A3.065 3.065 0 003.3 1.035 3.1 3.1 0 001 2.672a8.58 8.58 0 00-.723 6.186zM2.773 3.6a1.115 1.115 0 011.413-.516c.133.055.254.137.355.239l2.085 2.085a1.1 1.1 0 01.239 1.213 2.9 2.9 0 01-.575.879 2.817 2.817 0 00-.59 2.9c.722 2.7 4.205 6.179 6.9 6.9a2.822 2.822 0 002.907-.6c.254-.243.55-.438.874-.576a1.1 1.1 0 011.214.239l2.085 2.085a1.09 1.09 0 01.31.942 1.113 1.113 0 01-.591.826 6.517 6.517 0 01-4.766.556C10.089 19.641 3.36 12.912 2.216 8.37a6.53 6.53 0 01.557-4.77z" fill="#FED154"/></symbol><symbol id="cart" viewBox="0 0 32 32" fill="none" style="background:0 0"><path d="M22.667 26.667a1.333 1.333 0 112.666 0 1.333 1.333 0 01-2.666 0zm-13.334 0a1.333 1.333 0 112.667 0 1.333 1.333 0 01-2.667 0zM4 4h1.024c.643 0 1.194.459 1.31 1.091l3 16.242" stroke="#fff" stroke-width="2.667" stroke-linecap="round" stroke-linejoin="round"/><path d="M7.333 8h18.99c.858 0 1.493.798 1.3 1.633L25.162 20.3a1.333 1.333 0 01-1.3 1.033H9.333" stroke="#fff" stroke-width="2.667" stroke-linecap="round" stroke-linejoin="round"/></symbol><symbol id="shop-cart" viewBox="0 0 36 36" fill="none"><path d="M25.5 31.5a3 3 0 100-6 3 3 0 000 6zm-13.5 0a3 3 0 100-6 3 3 0 000 6z" stroke="#202225" stroke-width="2.25" stroke-linecap="round" stroke-linejoin="round"/><path d="M4.5 4.5h1.787a1.5 1.5 0 011.467 1.186l3.992 18.628a1.5 1.5 0 001.467 1.186H25.5" stroke="#202225" stroke-width="2.25" stroke-linecap="round" stroke-linejoin="round"/><path d="M9 9h20.506a1.5 1.5 0 011.441 1.916l-2.596 9A1.5 1.5 0 0126.91 21H11.596" stroke="#202225" stroke-width="2.25" stroke-linecap="round" stroke-linejoin="round"/></symbol><symbol id="download" viewBox="0 0 40 40" fill="none"><path d="M10 35h20M20 5v23.333M28.333 20L20 28.333 11.667 20" stroke="#FED154" stroke-width="3" stroke-linecap="round" stroke-linejoin="round"/></symbol><symbol id="arrow_back" viewBox="0 0 24 24" fill="none"><path d="M19 13a1 1 0 100-2v2zM5 11a1 1 0 100 2v-2zm14 0H5v2h14v-2z" fill="#FED154"/><path d="M10.293 18.707a1 1 0 001.414-1.414l-1.414 1.414zM5 12l-.707-.707a1 1 0 000 1.414L5 12zm6.707-5.293a1 1 0 00-1.414-1.414l1.414 1.414zm0 10.586l-6-6-1.414 1.414 6 6 1.414-1.414zm-6-4.586l6-6-1.414-1.414-6 6 1.414 1.414z" fill="#FED154"/></symbol><symbol id="facebook" viewBox="0 0 28 28" fill="none"><path d="M15.333 24.583A10.668 10.668 0 0014 3.333a10.667 10.667 0 00-1.333 21.25v-7.917H10v-2.667h2.667v-2.205c0-1.783.186-2.43.533-3.081a3.635 3.635 0 011.515-1.514c.509-.273 1.142-.437 2.249-.508.439-.028 1.007.007 1.704.107v2.533H18c-1.223 0-1.728.058-2.03.219a.97.97 0 00-.418.419c-.16.301-.219.6-.219 1.824v2.206h3.334L18 16.666h-2.667v7.917zM14 27.333c-7.364 0-13.333-5.97-13.333-13.334S6.636.666 14 .666s13.333 5.97 13.333 13.333c0 7.364-5.97 13.334-13.333 13.334z" fill="#D3D7E0"/></symbol><symbol id="instagramm" viewBox="0 0 28 28" fill="none"><path d="M14 10a4 4 0 100 8 4 4 0 000-8zm0-2.667a6.667 6.667 0 110 13.333 6.667 6.667 0 010-13.333zm8.667-.334a1.667 1.667 0 11-3.333 0 1.667 1.667 0 013.333 0zM14 3.333c-3.299 0-3.837.009-5.372.077-1.045.05-1.747.19-2.397.443a3.848 3.848 0 00-1.44.937 3.853 3.853 0 00-.94 1.44c-.252.653-.392 1.353-.44 2.397-.07 1.472-.078 1.987-.078 5.372 0 3.299.01 3.838.078 5.372.049 1.044.189 1.747.44 2.396.228.58.494.998.937 1.44.45.448.867.716 1.44.938.659.254 1.36.396 2.4.444 1.472.069 1.987.077 5.372.077 3.299 0 3.837-.01 5.372-.077 1.043-.05 1.745-.19 2.396-.442a3.895 3.895 0 001.44-.936c.45-.449.717-.866.939-1.44.253-.657.394-1.36.442-2.4.07-1.472.078-1.986.078-5.372 0-3.298-.01-3.837-.078-5.372-.05-1.042-.19-1.746-.442-2.397a3.88 3.88 0 00-.938-1.44 3.847 3.847 0 00-1.44-.939c-.653-.253-1.354-.393-2.397-.441-1.472-.07-1.987-.077-5.372-.077zm0-2.667c3.623 0 4.075.013 5.496.08 1.42.067 2.387.29 3.237.62a6.5 6.5 0 012.363 1.537 6.545 6.545 0 011.537 2.363c.33.85.554 1.817.62 3.237.063 1.422.08 1.874.08 5.496 0 3.623-.013 4.075-.08 5.496-.066 1.42-.29 2.387-.62 3.238a6.51 6.51 0 01-1.537 2.362 6.554 6.554 0 01-2.363 1.538c-.85.329-1.817.553-3.237.62-1.421.062-1.873.08-5.496.08s-4.075-.014-5.496-.08c-1.42-.067-2.387-.291-3.237-.62a6.52 6.52 0 01-2.363-1.538 6.54 6.54 0 01-1.537-2.362c-.331-.85-.554-1.818-.62-3.238C.684 18.074.667 17.622.667 14s.013-4.074.08-5.496c.066-1.421.289-2.386.62-3.237a6.507 6.507 0 011.537-2.363 6.53 6.53 0 012.363-1.537c.85-.33 1.816-.553 3.237-.62C9.925.683 10.377.666 14 .666z" fill="#D3D7E0"/></symbol><symbol id="delivery" viewBox="0 0 26 15" fill="none"><path fill-rule="evenodd" clip-rule="evenodd" d="M4.895.052a.995.995 0 00-.318.207c-.159.153-.211.273-.295.68l-.033.16 1.514.015 1.513.015.288.14c.383.186.81.643.958 1.026.08.206.113.398.113.666 0 .541-.146.887-.544 1.29l-.312.317.312.316c.398.403.544.749.544 1.29 0 .542-.146.886-.547 1.293l-.316.32.264.247c.145.136.304.32.353.41l.09.165h.667c.754.001 1.096.073 1.689.353a3.847 3.847 0 011.77 1.753c.263.543.349.926.352 1.57l.004.564h.652c.728 0 .921-.054 1.106-.31.08-.112.404-1.522 1.343-5.854C16.742 3.547 17.3.886 17.3.773c0-.272-.168-.517-.455-.66L16.62 0l-5.788.004C7.648.007 4.977.028 4.895.052zM2.683 2.214a.98.98 0 00-.246.16c-.392.362-.342.929.11 1.26.14.103.19.105 2.318.105s2.178-.002 2.319-.105c.498-.365.498-.98 0-1.346-.14-.102-.2-.105-2.259-.115-1.336-.006-2.162.009-2.242.04zm15.556 1.07c-.213.078-.455.319-.501.499-.015.059-.418 1.914-.895 4.122-.631 2.918-.863 4.08-.848 4.248.042.473.348.696.958.696h.373l.007-.54c.015-1.047.351-1.847 1.083-2.576.597-.596 1.174-.914 1.94-1.07 1.294-.264 2.579.148 3.507 1.124a3.585 3.585 0 011.015 2.418c.009.366.021.425.082.376.127-.103.187-.33.616-2.33L26 8.281l-.058-.516c-.248-2.193-1.837-3.924-4.074-4.437-.49-.113-3.343-.147-3.629-.043zm-16.746 2.2a.792.792 0 00.028 1.395c.192.097.286.1 2.859.087 2.609-.014 2.663-.016 2.804-.12.498-.364.498-.98 0-1.345-.14-.103-.194-.105-2.817-.118l-2.674-.012-.2.113zm-1.02 3.17c-.337.145-.53.53-.458.909.044.234.298.512.528.578.125.036 1.217.049 3.341.038 3.111-.015 3.158-.016 3.3-.12.498-.365.498-.98 0-1.346-.142-.104-.185-.105-3.35-.116-2.589-.01-3.237.002-3.362.056zm8.29 1.035c-1.232.189-2.167 1.219-2.256 2.483-.112 1.59 1.29 2.953 2.899 2.819.69-.058 1.374-.39 1.809-.88.31-.347.594-.963.657-1.419A2.676 2.676 0 009.94 9.769a3 3 0 00-1.179-.08zm11.958-.003c-1.111.166-2.03 1.022-2.257 2.101-.082.39-.036 1.073.097 1.437.402 1.1 1.538 1.845 2.698 1.769 1.387-.091 2.453-1.145 2.526-2.497.029-.524-.041-.88-.262-1.334a2.719 2.719 0 00-2.802-1.476zM2.31 11.28c-.014.02-.052.179-.087.351-.115.582.012.965.377 1.136.146.069.38.081 1.498.081h1.325v-.47c0-.44.05-.846.128-1.048.033-.082-.064-.088-1.592-.088-.895 0-1.637.017-1.65.038z" fill="#FED154"/></symbol><symbol id="mail" viewBox="0 0 24 24" fill="none"><path d="M21 10h1a1 1 0 00-.375-.78L21 10zM3 10l-.603-.798A1 1 0 002 10h1zm8.636-6.53l.604.797-.604-.798zm1.229.016l.625-.78-.625.78zM20 10v10h2V10h-2zm0 10H4v2h16v-2zM4 20V10H2v10h2zm-.397-9.202l8.637-6.53-1.207-1.596-8.636 6.53 1.206 1.596zm8.637-6.53l8.135 6.513 1.25-1.562-8.135-6.513-1.25 1.561zm0 0l1.25-1.562a2 2 0 00-2.457-.034l1.207 1.595zM4 20H2a2 2 0 002 2v-2zm16 0v2a2 2 0 002-2h-2z" fill="#fff"/><path d="M3 10l9.257 6L21 10" stroke="#fff" stroke-width="2" stroke-linecap="round" stroke-linejoin="round"/></symbol><symbol id="open" viewBox="0 0 24 24" fill="none"><path d="M12 21a9 9 0 100-18 9 9 0 000 18z" stroke="#fff" stroke-width="2" stroke-miterlimit="10" stroke-linecap="round" stroke-linejoin="round"/><path d="M12 7v5h5" stroke="#fff" stroke-width="2" stroke-linecap="round" stroke-linejoin="round"/></symbol><symbol id="plus" viewBox="0 0 40 40" fill="none"><path d="M6 6V0h2v6h6v2H8v6H6V8H0V6h6z" fill="#FED154"/></symbol></svg>