<svg width="661" height="576" viewBox="0 0 661 576" fill="none" xmlns="http://www.w3.org/2000/svg">
<circle cx="533.5" cy="49.5" r="96.5" fill="white" fill-opacity="0.1"/>
<circle cx="566" cy="205" r="32" fill="white" fill-opacity="0.12"/>
<circle cx="-3" cy="213" r="89" fill="white" fill-opacity="0.1"/>
<path d="M74.9799 324.082C70.0716 319.714 63.9785 316.901 57.4711 315.996C50.9637 315.092 44.3342 316.137 38.421 319.001C32.5078 321.864 27.5765 326.416 24.2506 332.082C20.9247 337.748 19.3537 344.273 19.7362 350.832C20.1186 357.391 22.4375 363.689 26.3994 368.93C30.3613 374.171 35.7883 378.119 41.9943 380.276C48.2002 382.433 54.9063 382.7 61.2645 381.046C67.6227 379.391 73.3474 375.888 77.7147 370.98L52.8982 348.898L74.9799 324.082Z" fill="white" fill-opacity="0.1"/>
<path d="M574.5 634L488.33 481H660.67L574.5 634Z" fill="white" fill-opacity="0.06"/>
<path d="M497.5 592L411.33 439H583.67L497.5 592Z" fill="white" fill-opacity="0.06"/>
<path d="M59 12L69.3276 43.7852H102.749L75.7105 63.4296L86.0381 95.2148L59 75.5704L31.9619 95.2148L42.2895 63.4296L15.2514 43.7852H48.6724L59 12Z" fill="white" fill-opacity="0.18"/>
</svg>
